<?xml version="1.0" encoding="iso-8859-1"?>
<!-- Uploaded to: SVG Repo, www.svgrepo.com, Generator: SVG Repo Mixer Tools -->
<svg fill="#000000" height="400px" width="400px" version="1.1" id="Layer_1" xmlns="http://www.w3.org/2000/svg" xmlns:xlink="http://www.w3.org/1999/xlink"
	 viewBox="0 0 512.001 512.001" xml:space="preserve">
<g>
	<g>
		<path d="M473.718,209.364c-9.45-31.045-26.615-55.216-49.644-69.901c-26.006-16.584-49.508-20.056-72.629-18.69
			c2.622-3.523,5.1-7.235,7.413-11.16c17.071-28.971,21.691-61.543,24.173-79.042c0.275-1.938,0.521-3.673,0.754-5.174L387.742,0
			l-24.735,6.997c-1.461,0.413-3.154,0.866-5.043,1.374c-17.07,4.579-48.844,13.102-75.539,33.551
			c-15.848,12.14-27.518,26.807-34.858,43.583c-21.069-29.46-46.85-40.3-48.466-40.956L186.691,75.1
			c0.374,0.152,32.92,13.856,47.881,56.449c-12.035-1.226-23.418-3.27-34.556-5.274c-36.664-6.595-71.296-12.825-112.089,13.189
			c-23.028,14.684-40.195,38.856-49.644,69.901c-8.258,27.131-10.725,59.599-7.135,93.895
			c4.533,43.297,18.335,86.996,38.866,123.053c22.965,40.331,52.436,68.154,85.227,80.462c9.97,3.742,18.862,5.225,26.897,5.225
			c17.686-0.001,31.197-7.198,42.76-13.359c10.44-5.563,19.456-10.367,31.103-10.367c11.647,0,20.663,4.805,31.103,10.367
			c16.817,8.96,37.746,20.113,69.658,8.134c32.791-12.307,62.262-40.131,85.227-80.462c20.531-36.055,34.334-79.756,38.866-123.053
			C484.443,268.964,481.976,236.495,473.718,209.364z M302.478,68.099c14.011-10.733,30.639-17.624,44.636-22.225
			c-2.875,14.452-7.704,31.791-16.666,47c-13.413,22.762-32.852,35.491-59.17,38.635C271.219,105.005,281.505,84.165,302.478,68.099
			z M448.057,299.826c-4.068,38.861-16.401,77.988-34.725,110.168c-19.105,33.55-42.674,56.34-68.159,65.905
			c-17.966,6.745-27.752,1.53-42.563-6.363c-11.907-6.344-26.726-14.241-46.609-14.241c-19.883,0-34.702,7.896-46.609,14.241
			c-14.813,7.892-24.597,13.105-42.563,6.363c-25.485-9.565-49.054-32.355-68.159-65.905
			c-18.324-32.181-30.657-71.307-34.725-110.168c-6.51-62.197,9.082-111.752,41.713-132.559c29.92-19.079,54.5-14.656,88.522-8.537
			c18.067,3.25,38.544,6.934,61.823,6.934c23.279,0,43.756-3.684,61.823-6.934c34.023-6.12,58.602-10.541,88.522,8.537
			C438.974,188.074,454.568,237.63,448.057,299.826z"/>
	</g>
</g>
<g>
	<g>
		<path d="M140.507,172.232c-18.702,9.351-32.031,26.767-39.92,39.732c-9.993,16.423-17.115,35.142-20.057,52.706l32.522,5.446
			c4.765-28.459,23.697-59.139,42.201-68.391L140.507,172.232z"/>
	</g>
</g>
</svg>